<svg id="Layer_1" data-name="Layer 1" xmlns="http://www.w3.org/2000/svg" viewBox="0 0 312.47 71.28"><defs><style>.cls-1,.cls-6{fill:#193651;}.cls-2{fill:#fff;}.cls-3,.cls-4{fill:#44c4a1;}.cls-4,.cls-6{font-size:35.63px;font-family:PraxisNext-Ultra, Praxis Next;}.cls-5{letter-spacing:-0.02em;}.cls-6{letter-spacing:-0.01em;}.cls-7{letter-spacing:0em;}</style></defs><title>logo</title><path class="cls-1" d="M35.91,65.81q-.69,0-1.38,0l.08-1.88c.43,0,.87,0,1.3,0h.52l0,1.87Zm2.48-.1-.15-1.87q.91-.08,1.8-.21l.28,1.86C39.68,65.58,39,65.65,38.39,65.71Zm-5.79-.08c-.64-.07-1.28-.17-1.91-.28L31,63.51c.59.1,1.19.19,1.8.25Zm9.62-.49-.39-1.83c.59-.13,1.18-.27,1.76-.44l.51,1.81C43.48,64.85,42.85,65,42.22,65.14ZM28.79,65c-.62-.15-1.25-.33-1.86-.52l.56-1.79c.57.18,1.16.34,1.75.49Zm17.15-.87-.62-1.77c.57-.2,1.13-.42,1.69-.66l.74,1.72C47.15,63.64,46.55,63.87,45.94,64.09ZM25.1,63.8c-.59-.23-1.19-.48-1.78-.75l.79-1.71c.55.26,1.1.49,1.67.71Zm24.4-1.24-.85-1.67c.54-.28,1.07-.57,1.59-.88l1,1.62C50.64,62,50.07,62.27,49.5,62.56Zm-27.9-.38c-.57-.31-1.13-.64-1.67-1l1-1.59c.51.33,1,.63,1.56.92Zm31.23-1.59L51.77,59c.5-.34,1-.7,1.46-1.07l1.16,1.47C53.88,59.84,53.36,60.22,52.83,60.59Zm-34.5-.47c-.52-.38-1-.78-1.53-1.19L18,57.49q.71.57,1.44,1.11ZM55.87,58.2l-1.24-1.4c.45-.4.89-.82,1.31-1.25l1.34,1.32C56.82,57.33,56.36,57.77,55.87,58.2Zm-40.52-.55c-.47-.44-.93-.9-1.37-1.37L15.35,55c.42.44.84.87,1.28,1.29Zm43.24-2.2-1.42-1.23c.4-.46.78-.93,1.15-1.41L59.81,54C59.42,54.46,59,55,58.59,55.45Zm-45.88-.62c-.41-.5-.8-1-1.18-1.54l1.52-1.09c.36.49.72,1,1.11,1.44Zm48.22-2.46-1.56-1c.33-.5.65-1,1-1.54l1.62.94C61.62,51.28,61.28,51.83,60.93,52.37Zm-50.48-.69c-.34-.54-.66-1.1-1-1.67l1.65-.89c.29.54.59,1.06.91,1.57ZM62.85,49l-1.68-.83c.27-.54.51-1.09.74-1.65l1.74.72C63.4,47.85,63.14,48.44,62.85,49ZM8.62,48.28c-.27-.59-.52-1.19-.75-1.79l1.75-.67c.22.57.45,1.13.7,1.68Zm55.71-2.83-1.78-.61c.2-.57.37-1.14.53-1.73l1.81.48C64.72,44.22,64.53,44.84,64.33,45.45ZM7.24,44.66c-.19-.62-.36-1.25-.51-1.87l1.82-.44c.14.59.3,1.18.48,1.75Zm58.09-2.95-1.84-.37c.12-.59.22-1.18.3-1.79l1.86.25C65.56,40.44,65.46,41.08,65.33,41.71Zm-59-.82c-.11-.63-.2-1.27-.26-1.91l1.86-.2c.06.61.15,1.2.25,1.8Zm59.5-3L64,37.75c0-.6.06-1.2.07-1.81h1.87C65.91,36.6,65.88,37.24,65.84,37.88Zm-59.9-.83c0-.41,0-.83,0-1.24,0-.23,0-.46,0-.69l1.87,0v.65c0,.39,0,.78,0,1.16ZM64,34.12c0-.6-.09-1.21-.17-1.8l1.86-.23c.08.63.14,1.28.18,1.92Zm-56.1-.77L6,33.18c.06-.64.14-1.28.23-1.92l1.86.29C8,32.14,7.94,32.74,7.89,33.35Zm55.65-2.82c-.11-.6-.24-1.19-.4-1.77L65,28.29c.16.61.3,1.25.42,1.89Zm-55.1-.77-1.83-.4c.13-.63.29-1.26.47-1.87l1.8.51C8.72,28.58,8.57,29.17,8.44,29.76ZM62.63,27c-.18-.58-.39-1.15-.62-1.71l1.74-.7c.24.6.47,1.21.67,1.82ZM9.44,26.28l-1.76-.64c.21-.6.45-1.2.71-1.79l1.72.75C9.87,25.15,9.65,25.71,9.44,26.28Zm51.84-2.63c-.26-.55-.54-1.08-.84-1.61l1.64-.92c.31.56.61,1.13.89,1.72ZM10.88,23,9.22,22.1c.29-.57.61-1.14.94-1.69l1.61,1C11.45,21.89,11.16,22.42,10.88,23ZM59.5,20.49c-.33-.51-.68-1-1-1.49L60,17.88c.39.51.76,1,1.11,1.58Zm-46.75-.64L11.2,18.79c.37-.53.75-1.05,1.15-1.56l1.47,1.16C13.45,18.87,13.09,19.35,12.75,19.85Zm44.58-2.27c-.39-.46-.8-.91-1.22-1.34l1.35-1.31c.44.46.88.94,1.3,1.43ZM15,17,13.6,15.75c.43-.47.88-.94,1.34-1.39l1.31,1.34C15.82,16.12,15.4,16.56,15,17Zm39.82-2q-.68-.6-1.38-1.17l1.16-1.47c.51.41,1,.82,1.48,1.26Zm-37.23-.5-1.22-1.42c.49-.42,1-.82,1.51-1.21L19,13.33C18.52,13.7,18,14.08,17.58,14.47ZM52,12.72c-.49-.35-1-.68-1.52-1l1-1.61c.55.34,1.1.69,1.62,1.06Zm-31.49-.43-1-1.57c.54-.35,1.09-.69,1.65-1L22,11.34C21.5,11.64,21,12,20.48,12.29Zm28.39-1.45c-.53-.28-1.08-.54-1.63-.78L48,8.34c.59.26,1.18.54,1.75.84Zm-25.23-.35-.82-1.68c.57-.28,1.17-.55,1.77-.79l.7,1.73C24.73,10,24.18,10.23,23.64,10.49ZM45.56,9.38C45,9.17,44.42,9,43.84,8.82L44.36,7c.62.17,1.24.38,1.84.6ZM27,9.12l-.6-1.77c.61-.21,1.23-.39,1.86-.56l.48,1.82Q27.85,8.84,27,9.12Zm15.08-.76c-.59-.13-1.18-.24-1.78-.34l.29-1.85c.64.1,1.28.22,1.9.36ZM30.5,8.2l-.36-1.84c.63-.12,1.27-.22,1.91-.31l.24,1.86C31.69,8,31.09,8.09,30.5,8.2Zm8-.4c-.6,0-1.2-.09-1.81-.11l.05-1.87c.65,0,1.29,0,1.93.11Zm-4.4-.06L34,5.87c.64,0,1.28-.06,1.93-.06V7.68C35.3,7.68,34.7,7.7,34.1,7.74Z"/><polygon class="cls-2" points="35.91 18.67 21.18 27.24 35.91 35.81 50.64 27.24 35.91 18.67"/><path class="cls-1" d="M35.91,36.74a1,1,0,0,1-.47-.12L20.71,28.05a.94.94,0,0,1,0-1.62l14.73-8.57a.93.93,0,0,1,.94,0l14.73,8.57a.93.93,0,0,1,0,1.62L36.38,36.62A1,1,0,0,1,35.91,36.74Zm-12.86-9.5,12.86,7.48,12.86-7.48L35.91,19.76Z"/><polygon class="cls-3" points="28.64 27.24 35.91 23.01 43.18 27.24 35.91 31.47 28.64 27.24"/><polygon class="cls-2" points="35.91 35.81 35.91 52.94 50.64 44.37 50.64 27.24 35.91 35.81"/><path class="cls-1" d="M35.91,53.88a.9.9,0,0,1-.47-.13.92.92,0,0,1-.47-.81V35.81a.92.92,0,0,1,.47-.81l14.73-8.57a.94.94,0,0,1,1.41.81V44.37a.92.92,0,0,1-.47.81L36.38,53.75A.88.88,0,0,1,35.91,53.88Zm.94-17.53v15L49.7,43.84v-15Z"/><polygon class="cls-3" points="39.66 37.96 46.89 33.76 46.89 42.22 39.66 46.42 39.66 37.96"/><polygon class="cls-2" points="21.18 27.24 21.18 44.38 35.91 52.94 35.91 35.81 21.18 27.24"/><path class="cls-1" d="M35.91,53.88a.9.9,0,0,1-.47-.13L20.71,45.18a.91.91,0,0,1-.46-.81V27.24a.94.94,0,0,1,1.4-.81L36.38,35a.92.92,0,0,1,.47.81V52.94a.92.92,0,0,1-.47.81A.9.9,0,0,1,35.91,53.88Zm-13.79-10L35,51.31v-15L22.12,28.87Z"/><polygon class="cls-3" points="24.93 42.22 24.93 33.76 32.16 37.96 32.16 46.42 24.93 42.22"/><path class="cls-1" d="M35.91,65.81q-.69,0-1.38,0l.08-1.88c.43,0,.87,0,1.3,0h.52l0,1.87Zm2.48-.1-.15-1.87q.91-.08,1.8-.21l.28,1.86C39.68,65.58,39,65.65,38.39,65.71Zm-5.79-.08c-.64-.07-1.28-.17-1.91-.28L31,63.51c.59.1,1.19.19,1.8.25Zm9.62-.49-.39-1.83c.59-.13,1.18-.27,1.76-.44l.51,1.81C43.48,64.85,42.85,65,42.22,65.14ZM28.79,65c-.62-.15-1.25-.33-1.86-.52l.56-1.79c.57.18,1.16.34,1.75.49Zm17.15-.87-.62-1.77c.57-.2,1.13-.42,1.69-.66l.74,1.72C47.15,63.64,46.55,63.87,45.94,64.09ZM25.1,63.8c-.59-.23-1.19-.48-1.78-.75l.79-1.71c.55.26,1.1.49,1.67.71Zm24.4-1.24-.85-1.67c.54-.28,1.07-.57,1.59-.88l1,1.62C50.64,62,50.07,62.27,49.5,62.56Zm-27.9-.38c-.57-.31-1.13-.64-1.67-1l1-1.59c.51.33,1,.63,1.56.92Zm31.23-1.59L51.77,59c.5-.34,1-.7,1.46-1.07l1.16,1.47C53.88,59.84,53.36,60.22,52.83,60.59Zm-34.5-.47c-.52-.38-1-.78-1.53-1.19L18,57.49q.71.57,1.44,1.11ZM55.87,58.2l-1.24-1.4c.45-.4.89-.82,1.31-1.25l1.34,1.32C56.82,57.33,56.36,57.77,55.87,58.2Zm-40.52-.55c-.47-.44-.93-.9-1.37-1.37L15.35,55c.42.44.84.87,1.28,1.29Zm43.24-2.2-1.42-1.23c.4-.46.78-.93,1.15-1.41L59.81,54C59.42,54.46,59,55,58.59,55.45Zm-45.88-.62c-.41-.5-.8-1-1.18-1.54l1.52-1.09c.36.49.72,1,1.11,1.44Zm48.22-2.46-1.56-1c.33-.5.65-1,1-1.54l1.62.94C61.62,51.28,61.28,51.83,60.93,52.37Zm-50.48-.69c-.34-.54-.66-1.1-1-1.67l1.65-.89c.29.54.59,1.06.91,1.57ZM62.85,49l-1.68-.83c.27-.54.51-1.09.74-1.65l1.74.72C63.4,47.85,63.14,48.44,62.85,49ZM8.62,48.28c-.27-.59-.52-1.19-.75-1.79l1.75-.67c.22.57.45,1.13.7,1.68Zm55.71-2.83-1.78-.61c.2-.57.37-1.14.53-1.73l1.81.48C64.72,44.22,64.53,44.84,64.33,45.45ZM7.24,44.66c-.19-.62-.36-1.25-.51-1.87l1.82-.44c.14.59.3,1.18.48,1.75Zm58.09-2.95-1.84-.37c.12-.59.22-1.18.3-1.79l1.86.25C65.56,40.44,65.46,41.08,65.33,41.71Zm-59-.82c-.11-.63-.2-1.27-.26-1.91l1.86-.2c.06.61.15,1.2.25,1.8Zm59.5-3L64,37.75c0-.6.06-1.2.07-1.81h1.87C65.91,36.6,65.88,37.24,65.84,37.88Zm-59.9-.83c0-.41,0-.83,0-1.24,0-.23,0-.46,0-.69l1.87,0v.65c0,.39,0,.78,0,1.16ZM64,34.12c0-.6-.09-1.21-.17-1.8l1.86-.23c.08.63.14,1.28.18,1.92Zm-56.1-.77L6,33.18c.06-.64.14-1.28.23-1.92l1.86.29C8,32.14,7.94,32.74,7.89,33.35Zm55.65-2.82c-.11-.6-.24-1.19-.4-1.77L65,28.29c.16.61.3,1.25.42,1.89Zm-55.1-.77-1.83-.4c.13-.63.29-1.26.47-1.87l1.8.51C8.72,28.58,8.57,29.17,8.44,29.76ZM62.63,27c-.18-.58-.39-1.15-.62-1.71l1.74-.7c.24.6.47,1.21.67,1.82ZM9.44,26.28l-1.76-.64c.21-.6.45-1.2.71-1.79l1.72.75C9.87,25.15,9.65,25.71,9.44,26.28Zm51.84-2.63c-.26-.55-.54-1.08-.84-1.61l1.64-.92c.31.56.61,1.13.89,1.72ZM10.88,23,9.22,22.1c.29-.57.61-1.14.94-1.69l1.61,1C11.45,21.89,11.16,22.42,10.88,23ZM59.5,20.49c-.33-.51-.68-1-1-1.49L60,17.88c.39.51.76,1,1.11,1.58Zm-46.75-.64L11.2,18.79c.37-.53.75-1.05,1.15-1.56l1.47,1.16C13.45,18.87,13.09,19.35,12.75,19.85Zm44.58-2.27c-.39-.46-.8-.91-1.22-1.34l1.35-1.31c.44.46.88.94,1.3,1.43ZM15,17,13.6,15.75c.43-.47.88-.94,1.34-1.39l1.31,1.34C15.82,16.12,15.4,16.56,15,17Zm39.82-2q-.68-.6-1.38-1.17l1.16-1.47c.51.41,1,.82,1.48,1.26Zm-37.23-.5-1.22-1.42c.49-.42,1-.82,1.51-1.21L19,13.33C18.52,13.7,18,14.08,17.58,14.47ZM52,12.72c-.49-.35-1-.68-1.52-1l1-1.61c.55.34,1.1.69,1.62,1.06Zm-31.49-.43-1-1.57c.54-.35,1.09-.69,1.65-1L22,11.34C21.5,11.64,21,12,20.48,12.29Zm28.39-1.45c-.53-.28-1.08-.54-1.63-.78L48,8.34c.59.26,1.18.54,1.75.84Zm-25.23-.35-.82-1.68c.57-.28,1.17-.55,1.77-.79l.7,1.73C24.73,10,24.18,10.23,23.64,10.49ZM45.56,9.38C45,9.17,44.42,9,43.84,8.82L44.36,7c.62.17,1.24.38,1.84.6ZM27,9.12l-.6-1.77c.61-.21,1.23-.39,1.86-.56l.48,1.82Q27.85,8.84,27,9.12Zm15.08-.76c-.59-.13-1.18-.24-1.78-.34l.29-1.85c.64.1,1.28.22,1.9.36ZM30.5,8.2l-.36-1.84c.63-.12,1.27-.22,1.91-.31l.24,1.86C31.69,8,31.09,8.09,30.5,8.2Zm8-.4c-.6,0-1.2-.09-1.81-.11l.05-1.87c.65,0,1.29,0,1.93.11Zm-4.4-.06L34,5.87c.64,0,1.28-.06,1.93-.06V7.68C35.3,7.68,34.7,7.7,34.1,7.74Z"/><polygon class="cls-2" points="35.91 18.67 21.18 27.24 35.91 35.81 50.64 27.24 35.91 18.67"/><polygon class="cls-3" points="28.64 27.24 35.91 23.01 43.18 27.24 35.91 31.47 28.64 27.24"/><polygon class="cls-2" points="35.91 35.81 35.91 52.94 50.64 44.37 50.64 27.24 35.91 35.81"/><polygon class="cls-3" points="39.66 37.96 46.89 33.76 46.89 42.22 39.66 46.42 39.66 37.96"/><polygon class="cls-2" points="21.18 27.24 21.18 44.38 35.91 52.94 35.91 35.81 21.18 27.24"/><path class="cls-1" d="M51.11,26.43,36.38,17.86a.93.93,0,0,0-.94,0L20.71,26.43a1,1,0,0,0-.46.81V44.37a.91.91,0,0,0,.46.81l14.73,8.57h0c0,.15.89.19.94,0h0l14.73-8.57a.92.92,0,0,0,.47-.81V27.24A1,1,0,0,0,51.11,26.43ZM35,51.31,22.12,43.84v-15L35,36.35Zm.94-16.59L23.05,27.24l12.86-7.48,12.86,7.48ZM49.7,43.84,36.85,51.31v-15L49.7,28.87Z"/><polygon class="cls-3" points="24.93 42.22 24.93 33.76 32.16 37.96 32.16 46.42 24.93 42.22"/><text class="cls-4" transform="translate(184.32 45.77) scale(1.1 1)">M<tspan class="cls-5" x="35.6" y="0">O</tspan><tspan x="62.28" y="0">VE</tspan></text><text class="cls-6" transform="translate(73.97 45.64) scale(1.1 1)">K<tspan class="cls-7" x="24.76" y="0">UBE</tspan></text></svg>